<svg xmlns="http://www.w3.org/2000/svg" version="1.1" xmlns:xlink="http://www.w3.org/1999/xlink" xmlns:svgjs="http://svgjs.dev/svgjs" width="1500" height="219" viewBox="0 0 1500 219"><g transform="matrix(1,0,0,1,-0.9090909090909918,-0.07962550234991284)"><svg viewBox="0 0 396 58" data-background-color="#000000" preserveAspectRatio="xMidYMid meet" height="219" width="1500" xmlns="http://www.w3.org/2000/svg" xmlns:xlink="http://www.w3.org/1999/xlink"><g id="tight-bounds" transform="matrix(1,0,0,1,0.2400000000000091,0.021088032585822702)"><svg viewBox="0 0 395.52 57.957823934828376" height="57.957823934828376" width="395.52"><g><svg viewBox="0 0 474.7919540758288 69.57400000000001" height="57.957823934828376" width="395.52"><g><svg viewBox="0 0 474.7919540758288 69.57400000000001" height="69.57400000000001" width="474.7919540758288"><g id="textblocktransform"><svg viewBox="0 0 474.7919540758288 69.57400000000001" height="69.57400000000001" width="474.7919540758288" id="textblock"><g><svg viewBox="0 0 474.7919540758288 69.57400000000001" height="69.57400000000001" width="474.7919540758288"><g><svg><g></g><g></g></svg></g><g><svg><g></g><g><svg></svg></g></svg></g><g id="text-0"><svg viewBox="0 0 474.7919540758288 69.57400000000001" height="69.57400000000001" width="474.7919540758288"><g><svg xmlns="http://www.w3.org/2000/svg" xmlns:xlink="http://www.w3.org/1999/xlink" version="1.1" x="0" y="0" viewBox="12.489 7.365 77.02499999999999 85.271" enable-background="new 0 0 100 100" xml:space="preserve" height="69.57400000000001" width="62.84595407582883" class="icon-dxe-0" data-fill-palette-color="accent" id="dxe-0"><path d="M76.509 92.632C74.312 92.225 72.12 91.782 69.917 91.417 59.29 89.66 48.662 87.92 38.032 86.179 29.742 84.821 21.451 83.472 13.161 82.117 12.963 82.085 12.772 82.019 12.489 81.947L19.681 38.071C19.927 38.02 20.009 37.977 20.082 37.991 21.921 38.317 24.138 38.136 25.488 39.129 26.79 40.089 27.206 42.261 27.99 43.91A293 293 0 0 1 30.573 49.45C30.904 50.186 31.305 50.608 32.205 50.7 33.968 50.879 35.713 51.249 37.726 51.582L32.231 40.03C33.8 40.261 35.155 40.596 36.517 40.633 38.714 40.692 39.867 41.752 40.65 43.769 41.715 46.516 43.119 49.131 44.352 51.813 44.653 52.47 45.022 52.834 45.814 52.927 47.615 53.136 49.401 53.492 51.449 53.831L45.95 42.278C47.465 42.502 48.777 42.809 50.102 42.868 52.274 42.965 53.577 43.856 54.371 46.001 55.391 48.761 56.838 51.361 58.065 54.045 58.391 54.758 58.808 55.096 59.637 55.188 61.402 55.383 63.148 55.743 65.17 56.079L59.658 44.485C62.111 44.892 64.338 45.231 66.546 45.667 66.834 45.724 67.08 46.252 67.248 46.608A913 913 0 0 1 71.808 56.32C72.114 56.984 72.483 57.337 73.268 57.428 75.074 57.639 76.862 57.988 78.892 58.319L73.391 46.757 79.088 47.638 79.198 47.432 74.334 44.46 77.96 42.808C80.306 41.737 82.668 40.699 84.989 39.577 85.753 39.207 86.341 39.216 87.039 39.694 87.822 40.231 88.685 40.648 89.514 41.118V41.368C87.828 44.129 86.135 46.886 84.465 49.658 84.303 49.927 84.267 50.283 84.215 50.605 82.725 59.618 81.243 68.632 79.755 77.645 78.93 82.642 78.093 87.64 77.26 92.636 77.01 92.632 76.76 92.632 76.509 92.632M77.876 62.281L21.611 53.063 21.002 56.894 77.239 66.11zM73.688 87.677C73.884 86.616 74.022 85.715 74.224 84.828 74.392 84.088 74.133 83.785 73.394 83.668 68.672 82.92 63.954 82.142 59.235 81.369L27.843 76.233C24.615 75.705 21.385 75.179 18.079 74.639L17.473 78.464C36.257 81.544 54.916 84.601 73.688 87.677" fill="#ffffff" data-fill-palette-color="accent"></path><path d="M27.738 16.463L33.214 7.365 44.554 14.174C43.882 14.493 43.391 14.733 42.893 14.961 39.871 16.345 36.839 17.711 33.83 19.12 33.166 19.432 32.642 19.473 31.993 19.047 30.642 18.159 29.23 17.361 27.738 16.463" fill="#ffffff" data-fill-palette-color="accent"></path><path d="M62.407 37.289C66.244 35.539 69.835 33.891 73.439 32.274 73.743 32.136 74.225 32.052 74.479 32.196 76.384 33.286 78.254 34.442 80.322 35.689 77.012 37.205 73.845 38.54 70.794 40.1 69.196 40.917 67.94 40.922 66.506 39.816 65.301 38.889 63.911 38.202 62.407 37.289" fill="#ffffff" data-fill-palette-color="accent"></path><path d="M56.502 21.359C52.579 23.147 48.929 24.824 45.26 26.459 44.983 26.582 44.512 26.515 44.234 26.355 42.4 25.298 40.596 24.192 38.578 22.979 40.082 22.287 41.411 21.674 42.741 21.063 45.006 20.024 47.266 18.973 49.546 17.968 49.877 17.822 50.395 17.735 50.673 17.892 52.551 18.955 54.388 20.089 56.502 21.359" fill="#ffffff" data-fill-palette-color="accent"></path><path d="M68.414 28.524C65.489 29.86 62.619 30.903 60.032 32.428 57.562 33.884 55.563 33.71 53.448 31.948 52.634 31.27 51.628 30.824 50.534 30.167 51.137 29.863 51.558 29.634 51.993 29.435 55.054 28.036 58.129 26.666 61.173 25.232 61.886 24.897 62.417 24.859 63.112 25.312 64.78 26.4 66.516 27.384 68.414 28.524" fill="#ffffff" data-fill-palette-color="accent"></path></svg></g><g transform="matrix(1,0,0,1,79.27195407582883,1.2815626477541429)"><svg width="395.52" viewBox="3.7 -40.8 253.78000000000003 43" height="67.01087470449173" data-palette-color="#ffffff"><path d="M6.55-11.55L8.15-3.45Q11.05-1.45 16.3-1.45L16.3-1.45Q19.85-1.45 21.63-3.5 23.4-5.55 23.4-8.4L23.4-8.4Q23.4-9.9 23.15-10.93 22.9-11.95 22.08-13.25 21.25-14.55 19.45-15.85 17.65-17.15 14.75-18.6L14.75-18.6Q11.35-20.3 9.25-21.8 7.15-23.3 6.1-24.9 5.05-26.5 4.7-27.95 4.35-29.4 4.35-31.55L4.35-31.55Q4.35-35.95 7.88-38.38 11.4-40.8 16.2-40.8L16.2-40.8Q22.15-40.8 27.7-37.8L27.7-37.8 27.7-28.2Q26-27.9 24.85-28.2L24.85-28.2 23.25-36.85Q20.05-38.6 16.1-38.6L16.1-38.6Q13.45-38.6 11.63-37.02 9.8-35.45 9.8-32.6L9.8-32.6Q9.8-31 10-30.1 10.2-29.2 11-27.98 11.8-26.75 13.65-25.53 15.5-24.3 18.6-22.8L18.6-22.8Q29.3-17.6 29.3-10.4L29.3-10.4Q29.3-5.3 25.4-2.15 21.5 1 15.2 1L15.2 1Q8.95 1 3.7-1.95L3.7-1.95 3.7-11.55Q5.4-11.85 6.55-11.55L6.55-11.55ZM37.75-8.7L37.75-32.45Q37.75-35.75 37.6-37.35L37.6-37.35 33.65-37.85Q33.45-38.6 33.65-39.75L33.65-39.75Q37-40 42.2-40.8L42.2-40.8Q42.65-40.3 42.7-39.8L42.7-39.8Q42.45-38.5 42.45-31.7L42.45-31.7 42.45-22.25Q46.15-27.35 51.35-27.35L51.35-27.35Q54.45-27.35 56.65-25.8 58.85-24.25 58.85-20.5L58.85-20.5 58.85-2.55 62.9-1.8Q63.1-1 62.9 0.2L62.9 0.2Q59.75 0.05 56.5 0.05L56.5 0.05Q54.2 0.05 50 0.15L50 0.15Q49.7-0.8 50-1.8L50-1.8 53.95-2.35Q54.15-5.1 54.15-8.7L54.15-8.7 54.15-18Q54.15-21.5 53.27-23.05 52.4-24.6 50.1-24.6L50.1-24.6Q48.2-24.6 46.12-23.2 44.05-21.8 42.45-19.15L42.45-19.15 42.45-2.55 46.5-1.8Q46.7-1 46.5 0.2L46.5 0.2Q43.35 0.05 40.1 0.05L40.1 0.05Q37.8 0.05 33.6 0.15L33.6 0.15Q33.3-0.8 33.6-1.8L33.6-1.8 37.55-2.35Q37.75-5.1 37.75-8.7L37.75-8.7ZM65.85-13.3L65.85-13.3Q65.85-16.3 66.72-18.93 67.6-21.55 69.25-23.5 70.9-25.45 73.22-26.58 75.55-27.7 78.45-27.7L78.45-27.7Q81.3-27.7 83.65-26.58 86-25.45 87.67-23.5 89.35-21.55 90.25-18.93 91.15-16.3 91.15-13.3L91.15-13.3Q91.15-10.2 90.22-7.6 89.3-5 87.62-3.08 85.95-1.15 83.6-0.08 81.25 1 78.45 1L78.45 1Q75.5 1 73.17-0.05 70.85-1.1 69.22-3 67.6-4.9 66.72-7.53 65.85-10.15 65.85-13.3ZM73.15-22.5L73.15-22.5Q71-19.45 71-13.3L71-13.3Q71-10.25 71.57-7.95 72.15-5.65 73.15-4.13 74.15-2.6 75.5-1.85 76.85-1.1 78.45-1.1L78.45-1.1Q80-1.1 81.4-1.85 82.8-2.6 83.8-4.13 84.8-5.65 85.4-7.95 86-10.25 86-13.3L86-13.3Q86-16.35 85.4-18.68 84.8-21 83.77-22.53 82.75-24.05 81.37-24.83 80-25.6 78.45-25.6L78.45-25.6Q75.35-25.6 73.15-22.5ZM130.99-24.3L120.84 2.2 119.79 2.2 113.19-16.15 106.34 2.2 105.29 2.2 95.69-24.25 92.54-24.85Q92.34-25.65 92.54-26.85L92.54-26.85Q95.29-26.65 98.49-26.65L98.49-26.65Q101.34-26.65 104.54-26.8L104.54-26.8Q104.84-25.8 104.54-24.85L104.54-24.85 100.69-24.25 104.69-12.9Q106.44-7.9 106.99-5.65L106.99-5.65 107.09-5.65Q108.29-9.95 109.44-12.65L109.44-12.65 111.99-19.5 110.29-24.25 107.14-24.85Q106.94-25.65 107.14-26.85L107.14-26.85Q109.89-26.65 113.09-26.65L113.09-26.65Q115.94-26.65 119.14-26.8L119.14-26.8Q119.44-25.8 119.14-24.85L119.14-24.85 115.29-24.25 119.14-12.9Q120.89-7.9 121.44-5.65L121.44-5.65 121.54-5.65Q122.74-9.95 123.89-12.65L123.89-12.65 128.24-24.45 124.34-24.85Q124.14-25.65 124.34-26.85L124.34-26.85Q127.09-26.65 129.49-26.65L129.49-26.65Q131.54-26.65 134.74-26.8L134.74-26.8Q135.04-25.8 134.74-24.85L134.74-24.85 130.99-24.3ZM133.84-28.2L133.89-39.8 168.44-39.8 168.49-28.2Q167.39-28 166.64-28.2L166.64-28.2 164.29-37.25 153.89-37.25 153.89-2.2 158.94-1.7Q159.14-0.95 158.94 0.15L158.94 0.15Q155.79 0 151.34 0L151.34 0Q147.89 0 143.69 0.1L143.69 0.1Q143.39-0.8 143.69-1.7L143.69-1.7 148.34-2.3Q148.54-4.2 148.54-8.15L148.54-8.15 148.54-37.25 138.04-37.25 135.69-28.2Q134.94-28 133.84-28.2L133.84-28.2ZM180.24-18.6L180.24-18.6 180.24-2.55 184.29-1.8Q184.34-1.55 184.36-1.35 184.39-1.15 184.39-0.9L184.39-0.9Q184.39-0.65 184.36-0.38 184.34-0.1 184.29 0.2L184.29 0.2Q181.14 0.05 177.84 0.05L177.84 0.05Q176.69 0.05 175.06 0.08 173.44 0.1 171.34 0.15L171.34 0.15Q171.19-0.3 171.19-0.8L171.19-0.8Q171.19-1.25 171.34-1.8L171.34-1.8 175.29-2.35Q175.39-3.75 175.44-5.33 175.49-6.9 175.49-8.7L175.49-8.7 175.49-19.35Q175.49-22.65 175.34-24.25L175.34-24.25 171.39-24.75Q171.29-25 171.29-25.6L171.29-25.6Q171.29-25.85 171.29-26.1 171.29-26.35 171.39-26.65L171.39-26.65Q174.79-26.85 179.99-27.7L179.99-27.7Q180.44-27.2 180.49-26.7L180.49-26.7Q180.24-25.3 180.24-18.6ZM172.94-36.45L172.94-36.45Q172.84-36.7 172.84-36.98 172.84-37.25 172.84-37.5L172.84-37.5Q172.84-38.85 173.96-39.68 175.09-40.5 176.74-40.5L176.74-40.5Q178.29-40.5 179.26-39.58 180.24-38.65 180.24-37.05L180.24-37.05Q180.24-35.75 179.11-34.95 177.99-34.15 176.24-34.15L176.24-34.15Q175.04-34.15 174.11-34.75 173.19-35.35 172.94-36.45ZM223.94-8.7L223.94-17.85Q223.94-24.8 219.49-24.8L219.49-24.8Q215.69-24.8 212.29-19.55L212.29-19.55 212.29-2.55 216.34-1.8Q216.54-1 216.34 0.2L216.34 0.2Q213.19 0.05 209.94 0.05L209.94 0.05Q207.64 0.05 203.44 0.15L203.44 0.15Q203.14-0.8 203.44-1.8L203.44-1.8 207.39-2.35Q207.59-5.1 207.59-8.7L207.59-8.7 207.59-17.85Q207.59-24.8 203.14-24.8L203.14-24.8Q200.89-24.8 199.19-23.43 197.49-22.05 195.69-19.15L195.69-19.15 195.69-2.55 199.74-1.8Q199.94-1 199.74 0.2L199.74 0.2Q196.59 0.05 193.34 0.05L193.34 0.05Q191.04 0.05 186.84 0.15L186.84 0.15Q186.54-0.8 186.84-1.8L186.84-1.8 190.79-2.35Q190.99-5.1 190.99-8.7L190.99-8.7 190.99-22.4Q190.99-23.4 190.84-24.25L190.84-24.25 186.89-24.75Q186.69-25.5 186.89-26.65L186.89-26.65Q190.24-26.9 195.44-27.7L195.44-27.7Q195.89-27.2 195.94-26.7L195.94-26.7Q195.69-25.4 195.69-22.25L195.69-22.25Q199.64-27.7 204.59-27.7L204.59-27.7Q207.19-27.7 209.34-26.38 211.49-25.05 212.09-22.3L212.09-22.3Q216.09-27.7 220.94-27.7L220.94-27.7Q223.99-27.7 226.31-25.9 228.64-24.1 228.64-20.35L228.64-20.35 228.64-2.55 232.69-1.8Q232.89-1 232.69 0.2L232.69 0.2Q229.54 0.05 226.29 0.05L226.29 0.05Q223.99 0.05 219.79 0.15L219.79 0.15Q219.49-0.8 219.79-1.8L219.79-1.8 223.74-2.35Q223.94-5.1 223.94-8.7L223.94-8.7ZM256.43-14.1L256.43-14.1 240.73-14.1Q240.28-1.35 248.38-1.35L248.38-1.35Q251.83-1.35 255.43-4.4L255.43-4.4Q256.18-3.95 256.58-2.85L256.58-2.85Q253.13 1 247.83 1L247.83 1Q235.63 1 235.63-13.35L235.63-13.35Q235.63-20.15 239.23-23.93 242.83-27.7 247.63-27.7L247.63-27.7Q252.88-27.7 255.18-24.05 257.48-20.4 257.48-14.55L257.48-14.55Q256.98-14.15 256.43-14.1ZM247.53-25.7L247.53-25.7Q244.93-25.7 243.11-23 241.28-20.3 240.88-16.1L240.88-16.1 247.08-16.1Q250.78-16.1 252.38-16.55L252.38-16.55Q252.38-20.65 251.13-23.18 249.88-25.7 247.53-25.7Z" opacity="1" transform="matrix(1,0,0,1,0,0)" fill="#ffffff" class="wordmark-text-0" data-fill-palette-color="primary"></path></svg></g></svg></g></svg></g></svg></g></svg></g></svg></g><defs></defs></svg><rect width="395.52" height="57.957823934828376" fill="none" stroke="none" visibility="hidden"></rect></g></svg></g></svg>